<svg width="124" height="39" viewBox="0 0 124 39" fill="none" xmlns="http://www.w3.org/2000/svg">
<path d="M29.6462 4.07385L23.5156 0.668456L23.5068 0.664062L15.7487 14.6262H19.514V14.6219C19.5535 14.6219 19.5929 14.6219 19.6325 14.6262H19.7334C20.1196 14.6306 20.497 14.6569 20.87 14.7052C21.7477 14.8106 22.5946 15.0168 23.3977 15.3108L29.6462 4.07385Z" fill="#D1180D"/>
<path d="M18.3286 24.1353H11.3072V38.6821H18.3286V24.1353Z" fill="#D1180D"/>
<path d="M19.5394 15.9432V15.9407L19.4398 15.9406C19.4007 15.9402 19.3621 15.9377 19.3229 15.9377V15.9406L11.444 15.9377H11.4427C9.03337 15.9377 7.07317 13.9775 7.07317 11.5677C7.07317 9.15837 9.03337 7.19817 11.4427 7.19817V0.176758C5.16183 0.176758 0.0517578 5.28683 0.0517578 11.5677C0.0517578 17.8486 5.16113 22.9584 11.4414 22.959V22.9591L19.381 22.962C21.7638 22.9935 23.6929 24.9389 23.6929 27.3286C23.6929 29.7379 21.7327 31.6981 19.3229 31.6981V38.7195C25.6042 38.7195 30.7143 33.6095 30.7143 27.3286C30.7143 21.1203 25.7208 16.0593 19.5394 15.9432Z" fill="#1A1A1A"/>
<path d="M52.5711 23.0678H47.5706L46.4856 26.5197H43.4282L48.3695 12.2876H51.8709L56.8219 26.5197H53.6561L52.5711 23.0678ZM48.2115 20.8387H51.9298L50.1052 15.0099H50.0361L48.2115 20.8387Z" fill="#1A1A1A"/>
<path d="M63.991 26.7662C59.7399 26.7662 57.1362 23.985 57.1362 19.3593C57.1362 14.8027 59.7399 12.041 63.9219 12.041C67.2454 12.041 69.7508 14.0037 70.1749 16.8836H67.1865C66.7523 15.3945 65.5394 14.5066 63.9317 14.5066C61.5843 14.5066 60.174 16.2918 60.174 19.3199C60.174 22.407 61.6729 24.2905 64.0402 24.2905C65.983 24.2905 67.3344 23.0971 67.3937 21.3318L67.4034 21.1051H64.3066V18.9353H70.3032V20.5429C70.3032 24.4188 67.9558 26.7662 63.991 26.7662Z" fill="#1A1A1A"/>
<path d="M81.6929 26.5197H72.264V12.2876H81.6929V14.7434H75.2426V18.1757H81.3278V20.4638H75.2426V24.0541H81.6929V26.5197Z" fill="#1A1A1A"/>
<path d="M83.8419 26.5197V12.2876H86.3274L92.9747 21.5588H93.0535V12.2876H95.9041V26.5197H93.4382L86.7811 17.1992H86.6922V26.5197H83.8419Z" fill="#1A1A1A"/>
<path d="M97.8257 19.3987C97.8257 14.8125 100.44 12.041 104.562 12.041C107.985 12.041 110.588 14.2109 110.815 17.3966H107.915C107.639 15.6508 106.298 14.5066 104.562 14.5066C102.313 14.5066 100.864 16.3905 100.864 19.389C100.864 22.4265 102.294 24.3006 104.572 24.3006C106.337 24.3006 107.61 23.2649 107.925 21.5784H110.825C110.49 24.7543 108.054 26.7662 104.562 26.7662C100.42 26.7662 97.8257 23.9948 97.8257 19.3987Z" fill="#1A1A1A"/>
<path d="M116.061 26.5197V21.2035L111.109 12.2876H114.354L117.54 18.363H117.609L120.804 12.2876H124L119.039 21.2035V26.5197H116.061Z" fill="#1A1A1A"/>
</svg>
