<svg width="20" height="20" viewBox="0 0 20 20" fill="none" xmlns="http://www.w3.org/2000/svg">
<path fill-rule="evenodd" clip-rule="evenodd" d="M0.43934 17.1902C-0.146447 17.7759 -0.146447 18.7257 0.43934 19.3115C1.02513 19.8973 1.97487 19.8973 2.56066 19.3115L9.87541 11.9967L17.1902 19.3115C17.776 19.8973 18.7257 19.8973 19.3115 19.3115C19.8973 18.7257 19.8973 17.7759 19.3115 17.1902L11.9967 9.87541L19.3115 2.56066C19.8973 1.97487 19.8973 1.02513 19.3115 0.43934C18.7257 -0.146446 17.7759 -0.146447 17.1902 0.439339L9.87541 7.75409L2.56066 0.439339C1.97488 -0.146447 1.02513 -0.146446 0.439346 0.43934C-0.146441 1.02513 -0.146441 1.97487 0.439345 2.56066L7.75409 9.87541L0.43934 17.1902Z" fill="#1A1A1A"/>
</svg>
