<svg width="17" height="16" viewBox="0 0 17 16" fill="none" xmlns="http://www.w3.org/2000/svg">
<path fill-rule="evenodd" clip-rule="evenodd" d="M2.14131 7.18841C2.14131 3.98676 4.73676 1.39131 7.93841 1.39131C11.1401 1.39131 13.7355 3.98676 13.7355 7.18841C13.7355 8.75358 13.1152 10.1739 12.1071 11.2169C12.0809 11.2365 12.0559 11.2582 12.0321 11.282C12.0083 11.3058 11.9866 11.3309 11.9669 11.3571C10.9239 12.3652 9.5036 12.9855 7.93841 12.9855C4.73676 12.9855 2.14131 10.3901 2.14131 7.18841ZM12.5058 12.7396C11.264 13.7625 9.67293 14.3768 7.93841 14.3768C3.96836 14.3768 0.75 11.1585 0.75 7.18841C0.75 3.21836 3.96836 0 7.93841 0C11.9085 0 15.1268 3.21836 15.1268 7.18841C15.1268 8.92291 14.5125 10.5139 13.4896 11.7558L16.5463 14.8125C16.818 15.0841 16.818 15.5246 16.5463 15.7963C16.2746 16.0679 15.8342 16.0679 15.5625 15.7963L12.5058 12.7396Z" fill="white"/>
</svg>
